<svg xmlns="http://www.w3.org/2000/svg" viewBox="0 0 16 16" width="512" height="512" style="image-rendering: pixelated; shape-rendering: crispEdges;">
  <!-- Y=0 (Lush green forest canopy) -->
  <rect x="0" y="0" width="16" height="1" fill="#a7c957" />
  
  <!-- Y=1 -->
  <rect x="0" y="1" width="5" height="1" fill="#6a994e" />
  <rect x="5" y="1" width="2" height="1" fill="#0f380f" />
  <rect x="7" y="1" width="9" height="1" fill="#6a994e" />
  
  <!-- Y=2 -->
  <rect x="0" y="2" width="5" height="1" fill="#6a994e" />
  <rect x="5" y="2" width="1" height="1" fill="#0f380f" />
  <rect x="6" y="2" width="2" height="1" fill="#2980b9" />
  <rect x="8" y="2" width="1" height="1" fill="#0f380f" />
  <rect x="9" y="2" width="7" height="1" fill="#6a994e" />

  <!-- Y=3 -->
  <rect x="0" y="3" width="4" height="1" fill="#6a994e" />
  <rect x="4" y="3" width="1" height="1" fill="#0f380f" />
  <rect x="5" y="3" width="4" height="1" fill="#2980b9" />
  <rect x="9" y="3" width="1" height="1" fill="#0f380f" />
  <rect x="10" y="3" width="6" height="1" fill="#6a994e" />

  <!-- Y=4 -->
  <rect x="0" y="4" width="4" height="1" fill="#386641" />
  <rect x="4" y="4" width="1" height="1" fill="#0f380f" />
  <rect x="5" y="4" width="1" height="1" fill="#90e0ef" />
  <rect x="6" y="4" width="3" height="1" fill="#2980b9" />
  <rect x="9" y="4" width="1" height="1" fill="#0f380f" />
  <rect x="10" y="4" width="6" height="1" fill="#386641" />

  <!-- Y=5 -->
  <rect x="0" y="5" width="3" height="1" fill="#386641" />
  <rect x="3" y="5" width="1" height="1" fill="#0f380f" />
  <rect x="4" y="5" width="6" height="1" fill="#2980b9" />
  <rect x="10" y="5" width="1" height="1" fill="#0f380f" />
  <rect x="11" y="5" width="5" height="1" fill="#386641" />

  <!-- Y=6 -->
  <rect x="0" y="6" width="2" height="1" fill="#386641" />
  <rect x="2" y="6" width="1" height="1" fill="#0f380f" />
  <rect x="3" y="6" width="8" height="1" fill="#2980b9" />
  <rect x="11" y="6" width="1" height="1" fill="#0f380f" />
  <rect x="12" y="6" width="4" height="1" fill="#386641" />

  <!-- Y=7 -->
  <rect x="0" y="7" width="2" height="1" fill="#1e3f20" />
  <rect x="2" y="7" width="1" height="1" fill="#0f380f" />
  <rect x="3" y="7" width="1" height="1" fill="#90e0ef" />
  <rect x="4" y="7" width="7" height="1" fill="#2980b9" />
  <rect x="11" y="7" width="1" height="1" fill="#0f380f" />
  <rect x="12" y="7" width="4" height="1" fill="#1e3f20" />

  <!-- Y=8 -->
  <rect x="0" y="8" width="1" height="1" fill="#1e3f20" />
  <rect x="1" y="8" width="1" height="1" fill="#0f380f" />
  <rect x="2" y="8" width="10" height="1" fill="#2980b9" />
  <rect x="12" y="8" width="1" height="1" fill="#0f380f" />
  <rect x="13" y="8" width="3" height="1" fill="#1e3f20" />

  <!-- Y=9 (Slime Eye line 1) -->
  <rect x="0" y="9" width="1" height="1" fill="#1e3f20" />
  <rect x="1" y="9" width="1" height="1" fill="#0f380f" />
  <rect x="2" y="9" width="1" height="1" fill="#2980b9" />
  <rect x="3" y="9" width="1" height="1" fill="#0f380f" />
  <rect x="4" y="9" width="4" height="1" fill="#2980b9" />
  <rect x="8" y="9" width="1" height="1" fill="#0f380f" />
  <rect x="9" y="9" width="3" height="1" fill="#2980b9" />
  <rect x="12" y="9" width="1" height="1" fill="#0f380f" />
  <rect x="13" y="9" width="3" height="1" fill="#1e3f20" />

  <!-- Y=10 (Slime Eye line 2) -->
  <rect x="0" y="10" width="1" height="1" fill="#1e3f20" />
  <rect x="1" y="10" width="1" height="1" fill="#0f380f" />
  <rect x="2" y="10" width="1" height="1" fill="#2980b9" />
  <rect x="3" y="10" width="1" height="1" fill="#0f380f" />
  <rect x="4" y="10" width="4" height="1" fill="#2980b9" />
  <rect x="8" y="10" width="1" height="1" fill="#0f380f" />
  <rect x="9" y="10" width="3" height="1" fill="#2980b9" />
  <rect x="12" y="10" width="1" height="1" fill="#0f380f" />
  <rect x="13" y="10" width="3" height="1" fill="#1e3f20" />

  <!-- Y=11 -->
  <rect x="0" y="11" width="1" height="1" fill="#132a13" />
  <rect x="1" y="11" width="1" height="1" fill="#0f380f" />
  <rect x="2" y="11" width="10" height="1" fill="#2980b9" />
  <rect x="12" y="11" width="1" height="1" fill="#0f380f" />
  <rect x="13" y="11" width="3" height="1" fill="#132a13" />

  <!-- Y=12 (Slime Mouth line) -->
  <rect x="0" y="12" width="1" height="1" fill="#132a13" />
  <rect x="1" y="12" width="1" height="1" fill="#0f380f" />
  <rect x="2" y="12" width="2" height="1" fill="#2980b9" />
  <rect x="4" y="12" width="4" height="1" fill="#0f380f" />
  <rect x="8" y="12" width="4" height="1" fill="#2980b9" />
  <rect x="12" y="12" width="1" height="1" fill="#0f380f" />
  <rect x="13" y="12" width="3" height="1" fill="#132a13" />

  <!-- Y=13 -->
  <rect x="0" y="13" width="1" height="1" fill="#132a13" />
  <rect x="1" y="13" width="1" height="1" fill="#0f380f" />
  <rect x="2" y="13" width="9" height="1" fill="#2980b9" />
  <rect x="11" y="13" width="1" height="1" fill="#0f380f" />
  <rect x="12" y="13" width="4" height="1" fill="#132a13" />

  <!-- Y=14 (Lush grass top layer) -->
  <rect x="0" y="14" width="2" height="1" fill="#386641" />
  <rect x="2" y="14" width="1" height="1" fill="#0f380f" />
  <rect x="3" y="14" width="7" height="1" fill="#2980b9" />
  <rect x="10" y="14" width="1" height="1" fill="#0f380f" />
  <rect x="11" y="14" width="5" height="1" fill="#386641" />

  <!-- Y=15 (Deep dirt/soil base) -->
  <rect x="0" y="15" width="3" height="1" fill="#5c4033" />
  <rect x="3" y="15" width="7" height="1" fill="#0f380f" />
  <rect x="10" y="15" width="6" height="1" fill="#5c4033" />
</svg>
